<svg width="900" height="360" viewBox="0 0 900 360" xmlns="http://www.w3.org/2000/svg">
  <style>
    .title { font: bold 20px 'Helvetica', sans-serif; fill: #111; }
    .box { fill: #e7f2ff; stroke: #1b6ac9; stroke-width: 2px; rx: 14px; }
    .label { font: 14px 'Helvetica', sans-serif; fill: #123456; }
    .arrow { stroke: #555; stroke-width: 3px; fill: none; marker-end: url(#arrowhead); }
  </style>
  <defs>
    <marker id="arrowhead" markerWidth="10" markerHeight="7" refX="10" refY="3.5" orient="auto">
      <polygon points="0 0, 10 3.5, 0 7" fill="#555" />
    </marker>
  </defs>
  <text x="450" y="35" text-anchor="middle" class="title">Responsible AI Feedback Loop</text>
  <rect class="box" x="70" y="80" width="200" height="90" />
  <text class="label" x="170" y="130" text-anchor="middle">Data Governance</text>
  <rect class="box" x="350" y="80" width="200" height="90" />
  <text class="label" x="450" y="130" text-anchor="middle">Model Design</text>
  <rect class="box" x="630" y="80" width="200" height="90" />
  <text class="label" x="730" y="130" text-anchor="middle">Evaluation &amp; Monitoring</text>
  <rect class="box" x="350" y="220" width="200" height="90" />
  <text class="label" x="450" y="270" text-anchor="middle">Stakeholder Feedback</text>
  <line class="arrow" x1="270" y1="125" x2="350" y2="125" />
  <line class="arrow" x1="550" y1="125" x2="630" y2="125" />
  <path class="arrow" d="M 830 125 Q 850 200 730 250" />
  <line class="arrow" x1="730" y1="250" x2="550" y2="250" />
  <line class="arrow" x1="450" y1="220" x2="450" y2="170" />
  <line class="arrow" x1="350" y1="250" x2="250" y2="160" />
  <line class="arrow" x1="250" y1="160" x2="70" y2="125" />
</svg>
